<svg xmlns="http://www.w3.org/2000/svg" xmlns:xlink="http://www.w3.org/1999/xlink" width="3068" zoomAndPan="magnify" viewBox="0 0 2301 3127.500024" height="4170" preserveAspectRatio="xMidYMid meet" version="1.0"><defs><clipPath id="7c21789147"><path d="M 2.039062 579 L 649 579 L 649 891 L 2.039062 891 Z M 2.039062 579 " clip-rule="nonzero"/></clipPath><clipPath id="a2cab56497"><path d="M 1652 579 L 2298.921875 579 L 2298.921875 891 L 1652 891 Z M 1652 579 " clip-rule="nonzero"/></clipPath></defs><path fill="#ffffff" d="M 496.894531 1744.703125 L 496.894531 1619.6875 L 473.511719 1619.6875 L 473.511719 1598.40625 L 494.195312 1598.40625 C 493.304688 1595.695312 492.703125 1593.003906 492.101562 1590.304688 C 491.503906 1587.605469 491.503906 1584.90625 491.503906 1582.207031 C 491.503906 1569.914062 496.902344 1559.125 507.394531 1550.425781 C 518.183594 1541.734375 531.074219 1537.234375 546.359375 1537.234375 C 567.648438 1537.234375 587.140625 1542.632812 604.828125 1553.125 C 622.8125 1563.917969 636.308594 1578.605469 645.300781 1596.898438 L 621.3125 1596.898438 C 614.421875 1584.90625 604.222656 1575.613281 591.03125 1568.722656 C 577.539062 1561.824219 562.550781 1558.53125 546.351562 1558.53125 C 537.960938 1558.53125 530.769531 1560.925781 524.46875 1565.429688 C 518.46875 1569.929688 515.476562 1575.621094 515.476562 1582.214844 C 515.476562 1585.214844 515.777344 1587.914062 516.371094 1590.605469 C 516.679688 1593.605469 517.269531 1596.003906 518.171875 1598.402344 L 543.953125 1598.402344 L 543.953125 1619.6875 L 520.570312 1619.6875 L 520.570312 1744.703125 L 496.878906 1744.703125 Z M 537.96875 1619.6875 L 537.96875 1598.40625 L 670.484375 1598.40625 L 670.484375 1619.6875 L 647.101562 1619.6875 L 647.101562 1744.703125 L 623.71875 1744.703125 L 623.71875 1707.523438 C 621.019531 1710.820312 617.121094 1713.222656 612.019531 1715.328125 C 606.929688 1717.121094 600.929688 1718.027344 594.636719 1718.027344 C 582.046875 1718.027344 571.253906 1713.828125 562.558594 1705.4375 C 553.867188 1697.339844 549.367188 1687.148438 549.367188 1675.464844 C 549.367188 1663.765625 553.867188 1653.875 563.15625 1645.476562 C 572.148438 1637.085938 583.246094 1632.886719 596.136719 1632.886719 C 600.636719 1632.886719 604.527344 1633.191406 607.527344 1633.484375 C 610.527344 1634.085938 612.929688 1634.683594 614.429688 1635.578125 L 613.21875 1658.667969 C 611.71875 1657.464844 609.328125 1656.574219 606.320312 1655.96875 C 603.621094 1655.367188 600.03125 1655.066406 595.835938 1655.066406 C 589.546875 1655.066406 584.148438 1657.167969 579.648438 1661.066406 C 575.148438 1664.964844 572.75 1670.058594 572.75 1675.464844 C 572.75 1681.457031 574.847656 1686.554688 579.039062 1690.449219 C 583.238281 1694.648438 588.339844 1696.738281 594.332031 1696.738281 C 600.628906 1696.738281 606.320312 1695.238281 611.71875 1692.546875 C 617.121094 1689.546875 621.019531 1685.648438 623.71875 1680.855469 L 623.71875 1619.695312 L 537.96875 1619.695312 Z M 788.007812 1744.703125 L 788.007812 1714.730469 C 782.609375 1721.320312 775.117188 1726.421875 765.824219 1730.019531 C 756.527344 1733.613281 746.335938 1735.410156 734.945312 1735.410156 C 721.753906 1735.410156 710.363281 1732.113281 701.371094 1725.21875 C 692.074219 1718.628906 687.28125 1710.53125 687.28125 1700.9375 C 687.28125 1697.339844 687.878906 1694.039062 689.378906 1691.039062 C 690.878906 1687.746094 692.671875 1685.046875 695.078125 1682.941406 C 689.089844 1680.847656 684.28125 1677.550781 680.679688 1673.347656 C 677.089844 1668.859375 675.289062 1664.359375 675.289062 1659.265625 C 675.289062 1651.765625 678.589844 1645.476562 684.882812 1640.375 C 691.472656 1635.277344 699.273438 1632.585938 708.5625 1632.585938 L 732.851562 1632.585938 L 732.851562 1619.695312 L 664.792969 1619.695312 L 664.792969 1598.410156 L 834.78125 1598.410156 L 834.78125 1619.695312 L 811.398438 1619.695312 L 811.398438 1744.710938 L 788.015625 1744.710938 Z M 734.644531 1715.621094 C 744.527344 1715.621094 754.121094 1713.222656 763.417969 1708.429688 C 772.71875 1703.929688 781.109375 1697.332031 788 1688.941406 L 788 1619.679688 L 756.21875 1619.679688 L 756.21875 1651.460938 L 707.957031 1651.460938 C 704.65625 1651.460938 701.957031 1652.359375 699.558594 1653.851562 C 697.15625 1655.359375 695.964844 1657.152344 695.964844 1659.25 C 695.964844 1662.25 697.464844 1664.949219 700.15625 1667.042969 C 703.15625 1668.84375 706.449219 1670.042969 710.65625 1670.042969 L 742.730469 1668.84375 L 750.527344 1686.234375 L 729.539062 1686.234375 C 724.136719 1686.234375 719.648438 1687.730469 716.039062 1690.425781 C 712.449219 1693.425781 710.648438 1696.714844 710.648438 1700.921875 C 710.648438 1705.113281 713.046875 1708.421875 717.546875 1711.414062 C 722.339844 1714.121094 728.03125 1715.613281 734.636719 1715.613281 Z M 852.460938 1744.703125 L 852.460938 1619.6875 L 829.078125 1619.6875 L 829.078125 1598.40625 L 899.535156 1598.40625 L 899.535156 1619.6875 L 876.152344 1619.6875 L 876.152344 1744.703125 Z M 1062.023438 1744.703125 L 1062.023438 1695.53125 C 1058.730469 1698.832031 1054.832031 1701.230469 1050.339844 1703.332031 C 1045.839844 1705.121094 1040.746094 1706.03125 1035.648438 1706.03125 C 1023.058594 1706.03125 1012.265625 1702.136719 1003.566406 1694.640625 C 994.867188 1687.140625 990.375 1678.148438 990.375 1667.65625 L 990.375 1619.6875 L 975.980469 1619.6875 L 975.980469 1598.40625 L 1108.792969 1598.40625 L 1108.792969 1619.6875 L 1085.414062 1619.6875 L 1085.414062 1744.703125 Z M 1035.339844 1684.742188 C 1039.832031 1684.742188 1044.640625 1683.539062 1049.132812 1680.847656 C 1053.921875 1678.449219 1058.125 1674.855469 1062.015625 1670.058594 L 1062.015625 1619.6875 L 1014.042969 1619.6875 L 1014.042969 1667.359375 C 1014.042969 1672.148438 1016.152344 1676.042969 1020.34375 1679.648438 C 1024.542969 1682.941406 1029.640625 1684.742188 1035.332031 1684.742188 Z M 1182.546875 1749.203125 L 1109.695312 1649.96875 L 1129.175781 1635.570312 C 1131.882812 1642.769531 1135.46875 1648.46875 1140.273438 1652.960938 C 1145.367188 1657.460938 1150.464844 1659.558594 1155.867188 1659.558594 C 1159.765625 1659.558594 1162.765625 1658.058594 1165.457031 1655.367188 C 1168.15625 1652.660156 1169.355469 1649.367188 1169.355469 1645.777344 L 1169.355469 1619.6875 L 1103.09375 1619.6875 L 1103.09375 1598.402344 L 1211.921875 1598.402344 L 1211.921875 1619.6875 L 1192.738281 1619.6875 L 1192.738281 1645.777344 C 1192.738281 1655.367188 1190.339844 1663.757812 1185.847656 1670.648438 C 1181.347656 1677.550781 1175.949219 1680.839844 1169.355469 1680.839844 C 1165.757812 1680.839844 1163.363281 1680.839844 1161.859375 1680.542969 C 1160.359375 1680.234375 1159.15625 1679.941406 1158.558594 1679.339844 L 1201.128906 1736.902344 L 1182.546875 1749.195312 Z M 1162.464844 1565.722656 L 1162.464844 1536.351562 L 1191.839844 1536.351562 L 1191.839844 1565.722656 Z M 1289.574219 1619.6875 L 1289.574219 1598.40625 L 1419.980469 1598.40625 L 1419.980469 1619.6875 L 1398.097656 1619.6875 L 1398.097656 1664.066406 L 1346.835938 1664.066406 C 1340.535156 1664.066406 1335.445312 1665.859375 1330.945312 1669.765625 C 1326.453125 1673.355469 1324.347656 1677.855469 1324.347656 1683.257812 C 1324.347656 1692.554688 1328.546875 1700.945312 1337.246094 1707.835938 C 1345.929688 1714.738281 1356.425781 1718.027344 1368.71875 1718.027344 C 1368.117188 1717.121094 1367.519531 1715.628906 1367.21875 1714.136719 C 1366.917969 1712.628906 1366.917969 1710.832031 1366.917969 1708.738281 C 1366.917969 1703.339844 1368.710938 1698.839844 1372.617188 1695.246094 C 1376.210938 1691.648438 1381.007812 1689.847656 1386.402344 1689.847656 C 1391.800781 1689.847656 1396.59375 1691.957031 1400.492188 1696.148438 C 1404.082031 1700.347656 1406.191406 1705.445312 1406.191406 1711.136719 C 1406.191406 1714.738281 1404.992188 1718.328125 1402.890625 1722.230469 C 1400.792969 1726.136719 1397.792969 1729.425781 1394.199219 1732.726562 L 1409.492188 1760.910156 L 1388.800781 1770.5 L 1374.710938 1739.320312 C 1354.328125 1739.320312 1336.9375 1733.925781 1322.546875 1722.828125 C 1308.164062 1712.039062 1300.957031 1698.847656 1300.957031 1683.257812 C 1300.957031 1671.863281 1305.457031 1662.566406 1314.453125 1654.46875 C 1323.445312 1646.675781 1334.246094 1642.785156 1346.835938 1642.785156 L 1374.71875 1642.785156 L 1374.71875 1619.695312 L 1289.574219 1619.695312 Z M 1372.917969 1598.40625 L 1305.765625 1562.722656 L 1316.855469 1545.339844 L 1386.410156 1597.203125 L 1348.335938 1532.441406 L 1367.519531 1525.25 L 1398.097656 1598.40625 Z M 1415.78125 1619.6875 L 1415.78125 1598.40625 L 1548.296875 1598.40625 L 1548.296875 1619.6875 L 1524.914062 1619.6875 L 1524.914062 1744.703125 L 1501.535156 1744.703125 L 1501.535156 1707.523438 C 1498.832031 1710.820312 1494.925781 1713.222656 1489.835938 1715.328125 C 1484.742188 1717.121094 1478.742188 1718.027344 1472.453125 1718.027344 C 1459.863281 1718.027344 1449.070312 1713.828125 1440.371094 1705.4375 C 1431.679688 1697.339844 1427.179688 1687.148438 1427.179688 1675.464844 C 1427.179688 1663.765625 1431.679688 1653.875 1440.972656 1645.476562 C 1449.960938 1637.085938 1461.0625 1632.886719 1473.953125 1632.886719 C 1478.453125 1632.886719 1482.34375 1633.191406 1485.34375 1633.484375 C 1488.34375 1634.085938 1490.742188 1634.683594 1492.242188 1635.578125 L 1491.042969 1658.667969 C 1489.542969 1657.464844 1487.152344 1656.574219 1484.144531 1655.96875 C 1481.445312 1655.367188 1477.851562 1655.066406 1473.660156 1655.066406 C 1467.367188 1655.066406 1461.96875 1657.167969 1457.46875 1661.066406 C 1452.96875 1664.964844 1450.570312 1670.058594 1450.570312 1675.464844 C 1450.570312 1681.457031 1452.667969 1686.554688 1456.863281 1690.449219 C 1461.0625 1694.648438 1466.160156 1696.738281 1472.152344 1696.738281 C 1478.453125 1696.738281 1484.144531 1695.238281 1489.542969 1692.546875 C 1494.933594 1689.546875 1498.839844 1685.648438 1501.542969 1680.855469 L 1501.542969 1619.695312 L 1415.789062 1619.695312 Z M 1644.523438 1744.703125 L 1644.523438 1662.265625 L 1591.160156 1662.265625 C 1587.5625 1662.265625 1584.261719 1663.464844 1581.863281 1665.859375 C 1579.164062 1667.957031 1577.972656 1670.949219 1577.972656 1674.257812 C 1577.972656 1683.847656 1581.261719 1693.441406 1587.863281 1703.339844 C 1594.460938 1713.53125 1603.445312 1722.222656 1615.144531 1730.019531 L 1601.652344 1746.203125 C 1586.953125 1735.410156 1575.273438 1723.722656 1566.878906 1710.824219 C 1558.480469 1698.238281 1554.289062 1685.941406 1554.289062 1674.257812 C 1554.289062 1665.25 1557.882812 1657.167969 1565.082031 1650.875 C 1572.273438 1644.277344 1580.96875 1640.976562 1591.160156 1640.976562 L 1644.523438 1640.976562 L 1644.523438 1619.6875 L 1542.597656 1619.6875 L 1542.597656 1598.40625 L 1691.296875 1598.40625 L 1691.296875 1619.6875 L 1667.914062 1619.6875 L 1667.914062 1744.703125 Z M 1780.039062 1744.703125 L 1780.039062 1686.246094 L 1734.769531 1686.246094 L 1734.769531 1700.9375 C 1734.769531 1702.4375 1734.167969 1703.9375 1732.96875 1704.832031 C 1731.769531 1706.03125 1729.96875 1706.628906 1728.175781 1706.628906 C 1724.269531 1706.628906 1717.679688 1702.132812 1708.085938 1692.839844 C 1698.496094 1683.542969 1693.6875 1676.949219 1693.6875 1673.351562 C 1693.6875 1670.648438 1694.289062 1668.257812 1695.488281 1666.15625 C 1696.6875 1664.058594 1698.1875 1663.160156 1699.980469 1663.160156 L 1711.371094 1663.160156 L 1711.371094 1619.6875 L 1685.589844 1619.6875 L 1685.589844 1598.40625 L 1826.796875 1598.40625 L 1826.796875 1619.6875 L 1803.421875 1619.6875 L 1803.421875 1744.703125 Z M 1734.769531 1663.160156 L 1780.039062 1663.160156 L 1780.039062 1619.6875 L 1734.769531 1619.6875 Z M 1734.769531 1663.160156 " fill-opacity="1" fill-rule="nonzero"/><path fill="#ffffff" d="M 1795.429688 1765.542969 L 1787.921875 1755.335938 L 1800.632812 1748.871094 L 1838.78125 1780.339844 L 1830.441406 1788.675781 L 1800.632812 1762.84375 Z M 1795.429688 1765.542969 " fill-opacity="1" fill-rule="nonzero"/><path fill="#ffffff" d="M 222.492188 3123.46875 L 244.433594 3123.46875 L 295.402344 2964.894531 C 297.292969 2958.527344 300.59375 2954.273438 305.316406 2951.207031 L 274.871094 2951.207031 C 277 2953.089844 279.117188 2954.746094 279.117188 2956.871094 C 279.117188 2958.046875 277.9375 2962.292969 277.226562 2964.652344 L 237.113281 3095.855469 L 236.648438 3095.855469 L 192.042969 2962.769531 C 191.339844 2961.113281 190.394531 2958.28125 190.636719 2957.34375 C 190.636719 2954.273438 193.695312 2953.089844 196.054688 2951.207031 L 158.539062 2951.207031 C 161.605469 2953.570312 164.671875 2955.691406 167.273438 2963.242188 Z M 326.5625 3109.078125 C 326.5625 3118.984375 324.90625 3120.160156 320.1875 3123.46875 L 356.535156 3123.46875 C 351.8125 3120.160156 350.160156 3118.984375 350.160156 3109.078125 L 350.160156 2965.597656 C 350.160156 2955.691406 351.8125 2954.507812 356.535156 2951.207031 L 320.1875 2951.207031 C 324.914062 2954.507812 326.5625 2955.691406 326.5625 2965.597656 Z M 487.730469 2953.800781 C 485.601562 2955.453125 484.425781 2956.398438 482.300781 2956.398438 C 473.804688 2956.398438 468.617188 2947.667969 445.023438 2947.667969 C 411.75 2947.667969 386.96875 2967.71875 386.96875 2997.222656 C 386.96875 3017.746094 400.894531 3033.320312 424.253906 3042.058594 L 448.554688 3051.261719 C 466.726562 3058.105469 476.402344 3064.945312 476.402344 3080.046875 C 476.402344 3098.21875 460.351562 3109.308594 438.410156 3109.308594 C 408.445312 3109.308594 395.222656 3092.789062 389.328125 3083.117188 L 389.328125 3120.394531 C 390.980469 3118.742188 392.628906 3116.148438 394.992188 3116.148438 C 404.191406 3116.148438 413.632812 3127 440.773438 3127 C 475.9375 3127 500 3105.761719 500 3077.214844 C 500 3053.605469 485.839844 3041.347656 457.992188 3030.953125 L 433.933594 3021.992188 C 416.933594 3015.617188 410.566406 3008.53125 410.566406 2995.078125 C 410.566406 2977.378906 425.667969 2965.351562 444.542969 2965.351562 C 473.574219 2965.351562 485.601562 2985.164062 487.730469 2987.0625 L 487.730469 2953.789062 Z M 487.730469 2953.800781 " fill-opacity="1" fill-rule="nonzero"/><path fill="#ffffff" d="M 512.949219 3109.308594 C 508.464844 3121.105469 504.933594 3121.34375 502.570312 3123.46875 L 535.132812 3123.46875 C 534.1875 3121.339844 529.945312 3122.523438 529.945312 3114.738281 C 529.945312 3112.839844 530.410156 3111.671875 531.351562 3109.078125 L 547.640625 3065.175781 L 615.828125 3065.175781 L 633.054688 3110.480469 C 633.769531 3112.609375 634.710938 3114.492188 634.710938 3116.148438 C 634.710938 3120.871094 631.171875 3121.339844 629.285156 3123.460938 L 667.746094 3123.460938 C 663.027344 3120.152344 661.613281 3119.679688 658.078125 3110.480469 L 596.960938 2951.207031 L 566.515625 2951.207031 C 567.933594 2953.089844 569.816406 2955.21875 569.816406 2958.519531 C 569.816406 2960.410156 569.351562 2962.523438 568.636719 2964.171875 L 512.941406 3109.300781 Z M 553.0625 3049.851562 L 581.621094 2974.574219 L 610.414062 3049.851562 Z M 689.929688 3109.078125 C 689.929688 3118.984375 688.269531 3120.160156 683.554688 3123.46875 L 719.894531 3123.46875 C 715.183594 3120.160156 713.527344 3118.984375 713.527344 3109.078125 L 713.527344 3056.6875 L 739.953125 3028.140625 L 792.34375 3123.46875 L 823.957031 3123.46875 C 819.714844 3119.6875 816.871094 3119.222656 810.273438 3107.890625 L 756.234375 3011.386719 L 796.820312 2967.726562 C 807.917969 2955.691406 814.523438 2952.625 815.933594 2951.207031 L 781.957031 2951.207031 C 782.667969 2952.625 783.367188 2954.035156 783.367188 2955.917969 C 783.367188 2958.277344 780.304688 2961.824219 778.175781 2964.171875 L 713.519531 3034.5 L 713.519531 2965.589844 C 713.519531 2955.683594 715.175781 2954.5 719.886719 2951.199219 L 683.546875 2951.199219 C 688.269531 2954.5 689.921875 2955.683594 689.921875 2965.589844 L 689.921875 3109.070312 Z M 846.84375 3109.078125 C 846.84375 3118.984375 845.1875 3120.160156 840.472656 3123.46875 L 876.820312 3123.46875 C 872.09375 3120.160156 870.445312 3118.984375 870.445312 3109.078125 L 870.445312 3041.351562 L 951.382812 3041.351562 L 951.382812 3109.078125 C 951.382812 3118.984375 949.730469 3120.160156 945.007812 3123.46875 L 981.347656 3123.46875 C 976.625 3120.160156 974.972656 3118.984375 974.972656 3109.078125 L 974.972656 2965.597656 C 974.972656 2955.691406 976.625 2954.507812 981.347656 2951.207031 L 945.007812 2951.207031 C 949.730469 2954.507812 951.382812 2955.691406 951.382812 2965.597656 L 951.382812 3024.824219 L 870.445312 3024.824219 L 870.445312 2965.597656 C 870.445312 2955.691406 872.101562 2954.507812 876.820312 2951.207031 L 840.472656 2951.207031 C 845.195312 2954.507812 846.84375 2955.691406 846.84375 2965.597656 Z M 1006.828125 3109.308594 C 1002.34375 3121.105469 998.8125 3121.34375 996.449219 3123.46875 L 1029.011719 3123.46875 C 1028.074219 3121.339844 1023.824219 3122.523438 1023.824219 3114.738281 C 1023.824219 3112.839844 1024.289062 3111.671875 1025.230469 3109.078125 L 1041.519531 3065.175781 L 1109.710938 3065.175781 L 1126.933594 3110.480469 C 1127.640625 3112.609375 1128.585938 3114.492188 1128.585938 3116.148438 C 1128.585938 3120.871094 1125.042969 3121.339844 1123.15625 3123.460938 L 1161.617188 3123.460938 C 1156.902344 3120.152344 1155.484375 3119.679688 1151.945312 3110.480469 L 1090.832031 2951.207031 L 1060.386719 2951.207031 C 1061.804688 2953.089844 1063.6875 2955.21875 1063.6875 2958.519531 C 1063.6875 2960.410156 1063.222656 2962.523438 1062.511719 2964.171875 L 1006.816406 3109.300781 Z M 1046.941406 3049.851562 L 1075.492188 2974.574219 L 1104.289062 3049.851562 Z M 1183.808594 3109.078125 C 1183.808594 3118.984375 1182.15625 3120.160156 1177.433594 3123.46875 L 1213.773438 3123.46875 C 1209.054688 3120.160156 1207.40625 3118.984375 1207.40625 3109.078125 L 1207.40625 3053.855469 L 1231.710938 3053.855469 C 1278.902344 3053.855469 1302.734375 3036.15625 1302.734375 3002.179688 C 1302.734375 2960.648438 1281.738281 2951.214844 1231.710938 2951.214844 L 1177.441406 2951.214844 C 1182.164062 2954.515625 1183.8125 2955.699219 1183.8125 2965.605469 L 1183.8125 3109.085938 Z M 1207.40625 3037.339844 L 1207.40625 2967.726562 L 1231.710938 2967.726562 C 1267.105469 2967.726562 1279.140625 2979.050781 1279.140625 3001.945312 C 1279.140625 3022.941406 1268.523438 3037.339844 1231.710938 3037.339844 Z M 1207.40625 3037.339844 " fill-opacity="1" fill-rule="nonzero"/><path fill="#ffffff" d="M 1303.875 3109.308594 C 1299.390625 3121.105469 1295.859375 3121.34375 1293.496094 3123.46875 L 1326.054688 3123.46875 C 1325.109375 3121.339844 1320.867188 3122.523438 1320.867188 3114.738281 C 1320.867188 3112.839844 1321.332031 3111.671875 1322.277344 3109.078125 L 1338.566406 3065.175781 L 1406.753906 3065.175781 L 1423.980469 3110.480469 C 1424.691406 3112.609375 1425.636719 3114.492188 1425.636719 3116.148438 C 1425.636719 3120.871094 1422.097656 3121.339844 1420.207031 3123.460938 L 1458.667969 3123.460938 C 1453.960938 3120.152344 1452.535156 3119.679688 1449.003906 3110.480469 L 1387.886719 2951.207031 L 1357.441406 2951.207031 C 1358.855469 2953.089844 1360.738281 2955.21875 1360.738281 2958.519531 C 1360.738281 2960.410156 1360.273438 2962.523438 1359.5625 2964.171875 L 1303.867188 3109.300781 Z M 1343.984375 3049.851562 L 1372.542969 2974.574219 L 1401.339844 3049.851562 Z M 1343.984375 3049.851562 " fill-opacity="1" fill-rule="nonzero"/><path fill="#ffffff" d="M 1440.25 2951.207031 L 1440.25 2975.039062 C 1443.789062 2971.5 1444.03125 2967.726562 1456.539062 2967.726562 L 1490.988281 2967.726562 L 1490.988281 3109.078125 C 1490.988281 3118.984375 1489.339844 3120.160156 1484.617188 3123.46875 L 1520.964844 3123.46875 C 1516.238281 3120.160156 1514.589844 3118.984375 1514.589844 3109.078125 L 1514.589844 2967.726562 L 1549.511719 2967.726562 C 1561.546875 2967.726562 1561.789062 2971.5 1565.328125 2975.039062 L 1565.328125 2951.207031 Z M 1595.519531 3109.078125 C 1595.519531 3118.984375 1593.867188 3120.160156 1589.144531 3123.46875 L 1618.40625 3123.46875 C 1613.6875 3120.160156 1612.039062 3118.984375 1612.039062 3109.078125 L 1612.039062 2981.886719 L 1612.503906 2981.886719 L 1709.023438 3123.46875 L 1729.078125 3123.46875 L 1729.078125 2965.597656 C 1729.078125 2955.691406 1730.726562 2954.507812 1735.441406 2951.207031 L 1706.183594 2951.207031 C 1710.90625 2954.507812 1712.554688 2955.691406 1712.554688 2965.597656 L 1712.554688 3087.832031 L 1712.082031 3087.832031 L 1619.34375 2951.207031 L 1589.144531 2951.207031 C 1593.871094 2954.507812 1595.519531 2955.691406 1595.519531 2965.597656 Z M 1762.589844 3109.308594 C 1758.105469 3121.105469 1754.574219 3121.34375 1752.210938 3123.46875 L 1784.773438 3123.46875 C 1783.828125 3121.339844 1779.582031 3122.523438 1779.582031 3114.738281 C 1779.582031 3112.839844 1780.046875 3111.671875 1780.992188 3109.078125 L 1797.28125 3065.175781 L 1865.46875 3065.175781 L 1882.695312 3110.480469 C 1883.398438 3112.609375 1884.34375 3114.492188 1884.34375 3116.148438 C 1884.34375 3120.871094 1880.804688 3121.339844 1878.914062 3123.460938 L 1917.378906 3123.460938 C 1912.667969 3120.152344 1911.242188 3119.679688 1907.710938 3110.480469 L 1846.59375 2951.207031 L 1816.148438 2951.207031 C 1817.566406 2953.089844 1819.453125 2955.21875 1819.453125 2958.519531 C 1819.453125 2960.410156 1818.988281 2962.523438 1818.277344 2964.171875 L 1762.582031 3109.300781 Z M 1802.710938 3049.851562 L 1831.257812 2974.574219 L 1860.054688 3049.851562 Z M 1939.09375 3109.078125 C 1939.09375 3118.984375 1937.445312 3120.160156 1932.71875 3123.46875 L 1961.980469 3123.46875 C 1957.273438 3120.160156 1955.613281 3118.984375 1955.613281 3109.078125 L 1955.613281 2975.746094 L 1956.078125 2975.746094 L 2020.738281 3123.46875 L 2032.058594 3123.46875 L 2095.53125 2975.746094 L 2096.003906 2975.746094 L 2096.003906 3109.078125 C 2096.003906 3118.984375 2094.355469 3120.160156 2089.628906 3123.46875 L 2125.976562 3123.46875 C 2121.253906 3120.160156 2119.605469 3118.984375 2119.605469 3109.078125 L 2119.605469 2965.597656 C 2119.605469 2955.691406 2121.253906 2954.507812 2125.976562 2951.207031 L 2090.824219 2951.207031 L 2030.402344 3089.015625 L 1969.765625 2951.207031 L 1932.710938 2951.207031 C 1937.4375 2954.507812 1939.085938 2955.691406 1939.085938 2965.597656 L 1939.085938 3109.078125 Z M 1939.09375 3109.078125 " fill-opacity="1" fill-rule="nonzero"/><path fill="#ffffff" d="M 201.238281 2735.308594 C 201.238281 2786.835938 176.761719 2799.710938 160.023438 2816.464844 L 435.664062 2816.464844 C 417.636719 2799.710938 394.449219 2786.835938 394.449219 2735.308594 L 394.449219 1957.332031 C 394.449219 1904.515625 416.347656 1892.929688 435.664062 1876.175781 L 160.023438 1876.175781 C 179.339844 1892.929688 201.238281 1904.507812 201.238281 1957.332031 Z M 630.160156 2735.308594 C 630.160156 2786.835938 605.683594 2799.710938 588.945312 2816.464844 L 864.589844 2816.464844 C 846.558594 2799.710938 823.375 2786.835938 823.375 2735.308594 L 823.375 1957.332031 C 823.375 1904.515625 845.269531 1892.929688 864.589844 1876.175781 L 588.945312 1876.175781 C 608.261719 1892.929688 630.160156 1904.507812 630.160156 1957.332031 Z M 630.160156 2735.308594 " fill-opacity="1" fill-rule="nonzero"/><path fill="#ffffff" d="M 1034.613281 2735.308594 C 1034.613281 2786.835938 1010.144531 2799.710938 993.398438 2816.464844 L 1211.082031 2816.464844 C 1193.046875 2799.710938 1169.867188 2786.835938 1169.867188 2735.308594 L 1169.867188 2096.4375 L 1172.4375 2096.4375 L 1502.1875 2816.464844 L 1594.933594 2816.464844 L 1914.378906 2101.589844 L 1916.949219 2101.589844 L 1916.949219 2735.308594 C 1916.949219 2786.835938 1892.480469 2799.710938 1875.734375 2816.464844 L 2151.378906 2816.464844 C 2133.34375 2799.710938 2110.164062 2786.835938 2110.164062 2735.308594 L 2110.164062 1957.332031 C 2110.164062 1904.515625 2132.058594 1892.929688 2151.378906 1876.175781 L 1879.605469 1876.175781 L 1579.484375 2539.527344 L 1281.945312 1876.175781 L 993.414062 1876.175781 C 1012.730469 1892.929688 1034.628906 1904.507812 1034.628906 1957.332031 L 1034.628906 2735.308594 Z M 1034.613281 2735.308594 " fill-opacity="1" fill-rule="nonzero"/><path fill="#ffffff" d="M 222.492188 3123.46875 L 244.433594 3123.46875 L 295.402344 2964.894531 C 297.292969 2958.527344 300.59375 2954.273438 305.316406 2951.207031 L 274.871094 2951.207031 C 277 2953.089844 279.117188 2954.746094 279.117188 2956.871094 C 279.117188 2958.046875 277.9375 2962.292969 277.226562 2964.652344 L 237.113281 3095.855469 L 236.648438 3095.855469 L 192.042969 2962.769531 C 191.339844 2961.113281 190.394531 2958.28125 190.636719 2957.34375 C 190.636719 2954.273438 193.695312 2953.089844 196.054688 2951.207031 L 158.539062 2951.207031 C 161.605469 2953.570312 164.671875 2955.691406 167.273438 2963.242188 Z M 326.5625 3109.078125 C 326.5625 3118.984375 324.90625 3120.160156 320.1875 3123.46875 L 356.535156 3123.46875 C 351.8125 3120.160156 350.160156 3118.984375 350.160156 3109.078125 L 350.160156 2965.597656 C 350.160156 2955.691406 351.8125 2954.507812 356.535156 2951.207031 L 320.1875 2951.207031 C 324.914062 2954.507812 326.5625 2955.691406 326.5625 2965.597656 Z M 487.730469 2953.800781 C 485.601562 2955.453125 484.425781 2956.398438 482.300781 2956.398438 C 473.804688 2956.398438 468.617188 2947.667969 445.023438 2947.667969 C 411.75 2947.667969 386.96875 2967.71875 386.96875 2997.222656 C 386.96875 3017.746094 400.894531 3033.320312 424.253906 3042.058594 L 448.554688 3051.261719 C 466.726562 3058.105469 476.402344 3064.945312 476.402344 3080.046875 C 476.402344 3098.21875 460.351562 3109.308594 438.410156 3109.308594 C 408.445312 3109.308594 395.222656 3092.789062 389.328125 3083.117188 L 389.328125 3120.394531 C 390.980469 3118.742188 392.628906 3116.148438 394.992188 3116.148438 C 404.191406 3116.148438 413.632812 3127 440.773438 3127 C 475.9375 3127 500 3105.761719 500 3077.214844 C 500 3053.605469 485.839844 3041.347656 457.992188 3030.953125 L 433.933594 3021.992188 C 416.933594 3015.617188 410.566406 3008.53125 410.566406 2995.078125 C 410.566406 2977.378906 425.667969 2965.351562 444.542969 2965.351562 C 473.574219 2965.351562 485.601562 2985.164062 487.730469 2987.0625 L 487.730469 2953.789062 Z M 487.730469 2953.800781 " fill-opacity="1" fill-rule="nonzero"/><path fill="#ffffff" d="M 512.949219 3109.308594 C 508.464844 3121.105469 504.933594 3121.34375 502.570312 3123.46875 L 535.132812 3123.46875 C 534.1875 3121.339844 529.945312 3122.523438 529.945312 3114.738281 C 529.945312 3112.839844 530.410156 3111.671875 531.351562 3109.078125 L 547.640625 3065.175781 L 615.828125 3065.175781 L 633.054688 3110.480469 C 633.769531 3112.609375 634.710938 3114.492188 634.710938 3116.148438 C 634.710938 3120.871094 631.171875 3121.339844 629.285156 3123.460938 L 667.746094 3123.460938 C 663.027344 3120.152344 661.613281 3119.679688 658.078125 3110.480469 L 596.960938 2951.207031 L 566.515625 2951.207031 C 567.933594 2953.089844 569.816406 2955.21875 569.816406 2958.519531 C 569.816406 2960.410156 569.351562 2962.523438 568.636719 2964.171875 L 512.941406 3109.300781 Z M 553.0625 3049.851562 L 581.621094 2974.574219 L 610.414062 3049.851562 Z M 689.929688 3109.078125 C 689.929688 3118.984375 688.269531 3120.160156 683.554688 3123.46875 L 719.894531 3123.46875 C 715.183594 3120.160156 713.527344 3118.984375 713.527344 3109.078125 L 713.527344 3056.6875 L 739.953125 3028.140625 L 792.34375 3123.46875 L 823.957031 3123.46875 C 819.714844 3119.6875 816.871094 3119.222656 810.273438 3107.890625 L 756.234375 3011.386719 L 796.820312 2967.726562 C 807.917969 2955.691406 814.523438 2952.625 815.933594 2951.207031 L 781.957031 2951.207031 C 782.667969 2952.625 783.367188 2954.035156 783.367188 2955.917969 C 783.367188 2958.277344 780.304688 2961.824219 778.175781 2964.171875 L 713.519531 3034.5 L 713.519531 2965.589844 C 713.519531 2955.683594 715.175781 2954.5 719.886719 2951.199219 L 683.546875 2951.199219 C 688.269531 2954.5 689.921875 2955.683594 689.921875 2965.589844 L 689.921875 3109.070312 Z M 846.84375 3109.078125 C 846.84375 3118.984375 845.1875 3120.160156 840.472656 3123.46875 L 876.820312 3123.46875 C 872.09375 3120.160156 870.445312 3118.984375 870.445312 3109.078125 L 870.445312 3041.351562 L 951.382812 3041.351562 L 951.382812 3109.078125 C 951.382812 3118.984375 949.730469 3120.160156 945.007812 3123.46875 L 981.347656 3123.46875 C 976.625 3120.160156 974.972656 3118.984375 974.972656 3109.078125 L 974.972656 2965.597656 C 974.972656 2955.691406 976.625 2954.507812 981.347656 2951.207031 L 945.007812 2951.207031 C 949.730469 2954.507812 951.382812 2955.691406 951.382812 2965.597656 L 951.382812 3024.824219 L 870.445312 3024.824219 L 870.445312 2965.597656 C 870.445312 2955.691406 872.101562 2954.507812 876.820312 2951.207031 L 840.472656 2951.207031 C 845.195312 2954.507812 846.84375 2955.691406 846.84375 2965.597656 Z M 1006.828125 3109.308594 C 1002.34375 3121.105469 998.8125 3121.34375 996.449219 3123.46875 L 1029.011719 3123.46875 C 1028.074219 3121.339844 1023.824219 3122.523438 1023.824219 3114.738281 C 1023.824219 3112.839844 1024.289062 3111.671875 1025.230469 3109.078125 L 1041.519531 3065.175781 L 1109.710938 3065.175781 L 1126.933594 3110.480469 C 1127.640625 3112.609375 1128.585938 3114.492188 1128.585938 3116.148438 C 1128.585938 3120.871094 1125.042969 3121.339844 1123.15625 3123.460938 L 1161.617188 3123.460938 C 1156.902344 3120.152344 1155.484375 3119.679688 1151.945312 3110.480469 L 1090.832031 2951.207031 L 1060.386719 2951.207031 C 1061.804688 2953.089844 1063.6875 2955.21875 1063.6875 2958.519531 C 1063.6875 2960.410156 1063.222656 2962.523438 1062.511719 2964.171875 L 1006.816406 3109.300781 Z M 1046.941406 3049.851562 L 1075.492188 2974.574219 L 1104.289062 3049.851562 Z M 1183.808594 3109.078125 C 1183.808594 3118.984375 1182.15625 3120.160156 1177.433594 3123.46875 L 1213.773438 3123.46875 C 1209.054688 3120.160156 1207.40625 3118.984375 1207.40625 3109.078125 L 1207.40625 3053.855469 L 1231.710938 3053.855469 C 1278.902344 3053.855469 1302.734375 3036.15625 1302.734375 3002.179688 C 1302.734375 2960.648438 1281.738281 2951.214844 1231.710938 2951.214844 L 1177.441406 2951.214844 C 1182.164062 2954.515625 1183.8125 2955.699219 1183.8125 2965.605469 L 1183.8125 3109.085938 Z M 1207.40625 3037.339844 L 1207.40625 2967.726562 L 1231.710938 2967.726562 C 1267.105469 2967.726562 1279.140625 2979.050781 1279.140625 3001.945312 C 1279.140625 3022.941406 1268.523438 3037.339844 1231.710938 3037.339844 Z M 1207.40625 3037.339844 " fill-opacity="1" fill-rule="nonzero"/><path fill="#ffffff" d="M 1303.875 3109.308594 C 1299.390625 3121.105469 1295.859375 3121.34375 1293.496094 3123.46875 L 1326.054688 3123.46875 C 1325.109375 3121.339844 1320.867188 3122.523438 1320.867188 3114.738281 C 1320.867188 3112.839844 1321.332031 3111.671875 1322.277344 3109.078125 L 1338.566406 3065.175781 L 1406.753906 3065.175781 L 1423.980469 3110.480469 C 1424.691406 3112.609375 1425.636719 3114.492188 1425.636719 3116.148438 C 1425.636719 3120.871094 1422.097656 3121.339844 1420.207031 3123.460938 L 1458.667969 3123.460938 C 1453.960938 3120.152344 1452.535156 3119.679688 1449.003906 3110.480469 L 1387.886719 2951.207031 L 1357.441406 2951.207031 C 1358.855469 2953.089844 1360.738281 2955.21875 1360.738281 2958.519531 C 1360.738281 2960.410156 1360.273438 2962.523438 1359.5625 2964.171875 L 1303.867188 3109.300781 Z M 1343.984375 3049.851562 L 1372.542969 2974.574219 L 1401.339844 3049.851562 Z M 1343.984375 3049.851562 " fill-opacity="1" fill-rule="nonzero"/><path fill="#ffffff" d="M 1440.25 2951.207031 L 1440.25 2975.039062 C 1443.789062 2971.5 1444.03125 2967.726562 1456.539062 2967.726562 L 1490.988281 2967.726562 L 1490.988281 3109.078125 C 1490.988281 3118.984375 1489.339844 3120.160156 1484.617188 3123.46875 L 1520.964844 3123.46875 C 1516.238281 3120.160156 1514.589844 3118.984375 1514.589844 3109.078125 L 1514.589844 2967.726562 L 1549.511719 2967.726562 C 1561.546875 2967.726562 1561.789062 2971.5 1565.328125 2975.039062 L 1565.328125 2951.207031 Z M 1595.519531 3109.078125 C 1595.519531 3118.984375 1593.867188 3120.160156 1589.144531 3123.46875 L 1618.40625 3123.46875 C 1613.6875 3120.160156 1612.039062 3118.984375 1612.039062 3109.078125 L 1612.039062 2981.886719 L 1612.503906 2981.886719 L 1709.023438 3123.46875 L 1729.078125 3123.46875 L 1729.078125 2965.597656 C 1729.078125 2955.691406 1730.726562 2954.507812 1735.441406 2951.207031 L 1706.183594 2951.207031 C 1710.90625 2954.507812 1712.554688 2955.691406 1712.554688 2965.597656 L 1712.554688 3087.832031 L 1712.082031 3087.832031 L 1619.34375 2951.207031 L 1589.144531 2951.207031 C 1593.871094 2954.507812 1595.519531 2955.691406 1595.519531 2965.597656 Z M 1762.589844 3109.308594 C 1758.105469 3121.105469 1754.574219 3121.34375 1752.210938 3123.46875 L 1784.773438 3123.46875 C 1783.828125 3121.339844 1779.582031 3122.523438 1779.582031 3114.738281 C 1779.582031 3112.839844 1780.046875 3111.671875 1780.992188 3109.078125 L 1797.28125 3065.175781 L 1865.46875 3065.175781 L 1882.695312 3110.480469 C 1883.398438 3112.609375 1884.34375 3114.492188 1884.34375 3116.148438 C 1884.34375 3120.871094 1880.804688 3121.339844 1878.914062 3123.460938 L 1917.378906 3123.460938 C 1912.667969 3120.152344 1911.242188 3119.679688 1907.710938 3110.480469 L 1846.59375 2951.207031 L 1816.148438 2951.207031 C 1817.566406 2953.089844 1819.453125 2955.21875 1819.453125 2958.519531 C 1819.453125 2960.410156 1818.988281 2962.523438 1818.277344 2964.171875 L 1762.582031 3109.300781 Z M 1802.710938 3049.851562 L 1831.257812 2974.574219 L 1860.054688 3049.851562 Z M 1939.09375 3109.078125 C 1939.09375 3118.984375 1937.445312 3120.160156 1932.71875 3123.46875 L 1961.980469 3123.46875 C 1957.273438 3120.160156 1955.613281 3118.984375 1955.613281 3109.078125 L 1955.613281 2975.746094 L 1956.078125 2975.746094 L 2020.738281 3123.46875 L 2032.058594 3123.46875 L 2095.53125 2975.746094 L 2096.003906 2975.746094 L 2096.003906 3109.078125 C 2096.003906 3118.984375 2094.355469 3120.160156 2089.628906 3123.46875 L 2125.976562 3123.46875 C 2121.253906 3120.160156 2119.605469 3118.984375 2119.605469 3109.078125 L 2119.605469 2965.597656 C 2119.605469 2955.691406 2121.253906 2954.507812 2125.976562 2951.207031 L 2090.824219 2951.207031 L 2030.402344 3089.015625 L 1969.765625 2951.207031 L 1932.710938 2951.207031 C 1937.4375 2954.507812 1939.085938 2955.691406 1939.085938 2965.597656 L 1939.085938 3109.078125 Z M 1939.09375 3109.078125 " fill-opacity="1" fill-rule="nonzero"/><path fill="#ffffff" d="M 222.492188 3123.46875 L 244.433594 3123.46875 L 295.402344 2964.894531 C 297.292969 2958.527344 300.59375 2954.273438 305.316406 2951.207031 L 274.871094 2951.207031 C 277 2953.089844 279.117188 2954.746094 279.117188 2956.871094 C 279.117188 2958.046875 277.9375 2962.292969 277.226562 2964.652344 L 237.113281 3095.855469 L 236.648438 3095.855469 L 192.042969 2962.769531 C 191.339844 2961.113281 190.394531 2958.28125 190.636719 2957.34375 C 190.636719 2954.273438 193.695312 2953.089844 196.054688 2951.207031 L 158.539062 2951.207031 C 161.605469 2953.570312 164.671875 2955.691406 167.273438 2963.242188 Z M 326.5625 3109.078125 C 326.5625 3118.984375 324.90625 3120.160156 320.1875 3123.46875 L 356.535156 3123.46875 C 351.8125 3120.160156 350.160156 3118.984375 350.160156 3109.078125 L 350.160156 2965.597656 C 350.160156 2955.691406 351.8125 2954.507812 356.535156 2951.207031 L 320.1875 2951.207031 C 324.914062 2954.507812 326.5625 2955.691406 326.5625 2965.597656 Z M 487.730469 2953.800781 C 485.601562 2955.453125 484.425781 2956.398438 482.300781 2956.398438 C 473.804688 2956.398438 468.617188 2947.667969 445.023438 2947.667969 C 411.75 2947.667969 386.96875 2967.71875 386.96875 2997.222656 C 386.96875 3017.746094 400.894531 3033.320312 424.253906 3042.058594 L 448.554688 3051.261719 C 466.726562 3058.105469 476.402344 3064.945312 476.402344 3080.046875 C 476.402344 3098.21875 460.351562 3109.308594 438.410156 3109.308594 C 408.445312 3109.308594 395.222656 3092.789062 389.328125 3083.117188 L 389.328125 3120.394531 C 390.980469 3118.742188 392.628906 3116.148438 394.992188 3116.148438 C 404.191406 3116.148438 413.632812 3127 440.773438 3127 C 475.9375 3127 500 3105.761719 500 3077.214844 C 500 3053.605469 485.839844 3041.347656 457.992188 3030.953125 L 433.933594 3021.992188 C 416.933594 3015.617188 410.566406 3008.53125 410.566406 2995.078125 C 410.566406 2977.378906 425.667969 2965.351562 444.542969 2965.351562 C 473.574219 2965.351562 485.601562 2985.164062 487.730469 2987.0625 L 487.730469 2953.789062 Z M 487.730469 2953.800781 " fill-opacity="1" fill-rule="nonzero"/><path fill="#ffffff" d="M 512.949219 3109.308594 C 508.464844 3121.105469 504.933594 3121.34375 502.570312 3123.46875 L 535.132812 3123.46875 C 534.1875 3121.339844 529.945312 3122.523438 529.945312 3114.738281 C 529.945312 3112.839844 530.410156 3111.671875 531.351562 3109.078125 L 547.640625 3065.175781 L 615.828125 3065.175781 L 633.054688 3110.480469 C 633.769531 3112.609375 634.710938 3114.492188 634.710938 3116.148438 C 634.710938 3120.871094 631.171875 3121.339844 629.285156 3123.460938 L 667.746094 3123.460938 C 663.027344 3120.152344 661.613281 3119.679688 658.078125 3110.480469 L 596.960938 2951.207031 L 566.515625 2951.207031 C 567.933594 2953.089844 569.816406 2955.21875 569.816406 2958.519531 C 569.816406 2960.410156 569.351562 2962.523438 568.636719 2964.171875 L 512.941406 3109.300781 Z M 553.0625 3049.851562 L 581.621094 2974.574219 L 610.414062 3049.851562 Z M 689.929688 3109.078125 C 689.929688 3118.984375 688.269531 3120.160156 683.554688 3123.46875 L 719.894531 3123.46875 C 715.183594 3120.160156 713.527344 3118.984375 713.527344 3109.078125 L 713.527344 3056.6875 L 739.953125 3028.140625 L 792.34375 3123.46875 L 823.957031 3123.46875 C 819.714844 3119.6875 816.871094 3119.222656 810.273438 3107.890625 L 756.234375 3011.386719 L 796.820312 2967.726562 C 807.917969 2955.691406 814.523438 2952.625 815.933594 2951.207031 L 781.957031 2951.207031 C 782.667969 2952.625 783.367188 2954.035156 783.367188 2955.917969 C 783.367188 2958.277344 780.304688 2961.824219 778.175781 2964.171875 L 713.519531 3034.5 L 713.519531 2965.589844 C 713.519531 2955.683594 715.175781 2954.5 719.886719 2951.199219 L 683.546875 2951.199219 C 688.269531 2954.5 689.921875 2955.683594 689.921875 2965.589844 L 689.921875 3109.070312 Z M 846.84375 3109.078125 C 846.84375 3118.984375 845.1875 3120.160156 840.472656 3123.46875 L 876.820312 3123.46875 C 872.09375 3120.160156 870.445312 3118.984375 870.445312 3109.078125 L 870.445312 3041.351562 L 951.382812 3041.351562 L 951.382812 3109.078125 C 951.382812 3118.984375 949.730469 3120.160156 945.007812 3123.46875 L 981.347656 3123.46875 C 976.625 3120.160156 974.972656 3118.984375 974.972656 3109.078125 L 974.972656 2965.597656 C 974.972656 2955.691406 976.625 2954.507812 981.347656 2951.207031 L 945.007812 2951.207031 C 949.730469 2954.507812 951.382812 2955.691406 951.382812 2965.597656 L 951.382812 3024.824219 L 870.445312 3024.824219 L 870.445312 2965.597656 C 870.445312 2955.691406 872.101562 2954.507812 876.820312 2951.207031 L 840.472656 2951.207031 C 845.195312 2954.507812 846.84375 2955.691406 846.84375 2965.597656 Z M 1006.828125 3109.308594 C 1002.34375 3121.105469 998.8125 3121.34375 996.449219 3123.46875 L 1029.011719 3123.46875 C 1028.074219 3121.339844 1023.824219 3122.523438 1023.824219 3114.738281 C 1023.824219 3112.839844 1024.289062 3111.671875 1025.230469 3109.078125 L 1041.519531 3065.175781 L 1109.710938 3065.175781 L 1126.933594 3110.480469 C 1127.640625 3112.609375 1128.585938 3114.492188 1128.585938 3116.148438 C 1128.585938 3120.871094 1125.042969 3121.339844 1123.15625 3123.460938 L 1161.617188 3123.460938 C 1156.902344 3120.152344 1155.484375 3119.679688 1151.945312 3110.480469 L 1090.832031 2951.207031 L 1060.386719 2951.207031 C 1061.804688 2953.089844 1063.6875 2955.21875 1063.6875 2958.519531 C 1063.6875 2960.410156 1063.222656 2962.523438 1062.511719 2964.171875 L 1006.816406 3109.300781 Z M 1046.941406 3049.851562 L 1075.492188 2974.574219 L 1104.289062 3049.851562 Z M 1183.808594 3109.078125 C 1183.808594 3118.984375 1182.15625 3120.160156 1177.433594 3123.46875 L 1213.773438 3123.46875 C 1209.054688 3120.160156 1207.40625 3118.984375 1207.40625 3109.078125 L 1207.40625 3053.855469 L 1231.710938 3053.855469 C 1278.902344 3053.855469 1302.734375 3036.15625 1302.734375 3002.179688 C 1302.734375 2960.648438 1281.738281 2951.214844 1231.710938 2951.214844 L 1177.441406 2951.214844 C 1182.164062 2954.515625 1183.8125 2955.699219 1183.8125 2965.605469 L 1183.8125 3109.085938 Z M 1207.40625 3037.339844 L 1207.40625 2967.726562 L 1231.710938 2967.726562 C 1267.105469 2967.726562 1279.140625 2979.050781 1279.140625 3001.945312 C 1279.140625 3022.941406 1268.523438 3037.339844 1231.710938 3037.339844 Z M 1207.40625 3037.339844 " fill-opacity="1" fill-rule="nonzero"/><path fill="#ffffff" d="M 1303.875 3109.308594 C 1299.390625 3121.105469 1295.859375 3121.34375 1293.496094 3123.46875 L 1326.054688 3123.46875 C 1325.109375 3121.339844 1320.867188 3122.523438 1320.867188 3114.738281 C 1320.867188 3112.839844 1321.332031 3111.671875 1322.277344 3109.078125 L 1338.566406 3065.175781 L 1406.753906 3065.175781 L 1423.980469 3110.480469 C 1424.691406 3112.609375 1425.636719 3114.492188 1425.636719 3116.148438 C 1425.636719 3120.871094 1422.097656 3121.339844 1420.207031 3123.460938 L 1458.667969 3123.460938 C 1453.960938 3120.152344 1452.535156 3119.679688 1449.003906 3110.480469 L 1387.886719 2951.207031 L 1357.441406 2951.207031 C 1358.855469 2953.089844 1360.738281 2955.21875 1360.738281 2958.519531 C 1360.738281 2960.410156 1360.273438 2962.523438 1359.5625 2964.171875 L 1303.867188 3109.300781 Z M 1343.984375 3049.851562 L 1372.542969 2974.574219 L 1401.339844 3049.851562 Z M 1343.984375 3049.851562 " fill-opacity="1" fill-rule="nonzero"/><path fill="#ffffff" d="M 1440.25 2951.207031 L 1440.25 2975.039062 C 1443.789062 2971.5 1444.03125 2967.726562 1456.539062 2967.726562 L 1490.988281 2967.726562 L 1490.988281 3109.078125 C 1490.988281 3118.984375 1489.339844 3120.160156 1484.617188 3123.46875 L 1520.964844 3123.46875 C 1516.238281 3120.160156 1514.589844 3118.984375 1514.589844 3109.078125 L 1514.589844 2967.726562 L 1549.511719 2967.726562 C 1561.546875 2967.726562 1561.789062 2971.5 1565.328125 2975.039062 L 1565.328125 2951.207031 Z M 1595.519531 3109.078125 C 1595.519531 3118.984375 1593.867188 3120.160156 1589.144531 3123.46875 L 1618.40625 3123.46875 C 1613.6875 3120.160156 1612.039062 3118.984375 1612.039062 3109.078125 L 1612.039062 2981.886719 L 1612.503906 2981.886719 L 1709.023438 3123.46875 L 1729.078125 3123.46875 L 1729.078125 2965.597656 C 1729.078125 2955.691406 1730.726562 2954.507812 1735.441406 2951.207031 L 1706.183594 2951.207031 C 1710.90625 2954.507812 1712.554688 2955.691406 1712.554688 2965.597656 L 1712.554688 3087.832031 L 1712.082031 3087.832031 L 1619.34375 2951.207031 L 1589.144531 2951.207031 C 1593.871094 2954.507812 1595.519531 2955.691406 1595.519531 2965.597656 Z M 1762.589844 3109.308594 C 1758.105469 3121.105469 1754.574219 3121.34375 1752.210938 3123.46875 L 1784.773438 3123.46875 C 1783.828125 3121.339844 1779.582031 3122.523438 1779.582031 3114.738281 C 1779.582031 3112.839844 1780.046875 3111.671875 1780.992188 3109.078125 L 1797.28125 3065.175781 L 1865.46875 3065.175781 L 1882.695312 3110.480469 C 1883.398438 3112.609375 1884.34375 3114.492188 1884.34375 3116.148438 C 1884.34375 3120.871094 1880.804688 3121.339844 1878.914062 3123.460938 L 1917.378906 3123.460938 C 1912.667969 3120.152344 1911.242188 3119.679688 1907.710938 3110.480469 L 1846.59375 2951.207031 L 1816.148438 2951.207031 C 1817.566406 2953.089844 1819.453125 2955.21875 1819.453125 2958.519531 C 1819.453125 2960.410156 1818.988281 2962.523438 1818.277344 2964.171875 L 1762.582031 3109.300781 Z M 1802.710938 3049.851562 L 1831.257812 2974.574219 L 1860.054688 3049.851562 Z M 1939.09375 3109.078125 C 1939.09375 3118.984375 1937.445312 3120.160156 1932.71875 3123.46875 L 1961.980469 3123.46875 C 1957.273438 3120.160156 1955.613281 3118.984375 1955.613281 3109.078125 L 1955.613281 2975.746094 L 1956.078125 2975.746094 L 2020.738281 3123.46875 L 2032.058594 3123.46875 L 2095.53125 2975.746094 L 2096.003906 2975.746094 L 2096.003906 3109.078125 C 2096.003906 3118.984375 2094.355469 3120.160156 2089.628906 3123.46875 L 2125.976562 3123.46875 C 2121.253906 3120.160156 2119.605469 3118.984375 2119.605469 3109.078125 L 2119.605469 2965.597656 C 2119.605469 2955.691406 2121.253906 2954.507812 2125.976562 2951.207031 L 2090.824219 2951.207031 L 2030.402344 3089.015625 L 1969.765625 2951.207031 L 1932.710938 2951.207031 C 1937.4375 2954.507812 1939.085938 2955.691406 1939.085938 2965.597656 L 1939.085938 3109.078125 Z M 1939.09375 3109.078125 " fill-opacity="1" fill-rule="nonzero"/><path fill="#ffffff" d="M 222.492188 3123.46875 L 244.433594 3123.46875 L 295.402344 2964.894531 C 297.292969 2958.527344 300.59375 2954.273438 305.316406 2951.207031 L 274.871094 2951.207031 C 277 2953.089844 279.117188 2954.746094 279.117188 2956.871094 C 279.117188 2958.046875 277.9375 2962.292969 277.226562 2964.652344 L 237.113281 3095.855469 L 236.648438 3095.855469 L 192.042969 2962.769531 C 191.339844 2961.113281 190.394531 2958.28125 190.636719 2957.34375 C 190.636719 2954.273438 193.695312 2953.089844 196.054688 2951.207031 L 158.539062 2951.207031 C 161.605469 2953.570312 164.671875 2955.691406 167.273438 2963.242188 Z M 326.5625 3109.078125 C 326.5625 3118.984375 324.90625 3120.160156 320.1875 3123.46875 L 356.535156 3123.46875 C 351.8125 3120.160156 350.160156 3118.984375 350.160156 3109.078125 L 350.160156 2965.597656 C 350.160156 2955.691406 351.8125 2954.507812 356.535156 2951.207031 L 320.1875 2951.207031 C 324.914062 2954.507812 326.5625 2955.691406 326.5625 2965.597656 Z M 487.730469 2953.800781 C 485.601562 2955.453125 484.425781 2956.398438 482.300781 2956.398438 C 473.804688 2956.398438 468.617188 2947.667969 445.023438 2947.667969 C 411.75 2947.667969 386.96875 2967.71875 386.96875 2997.222656 C 386.96875 3017.746094 400.894531 3033.320312 424.253906 3042.058594 L 448.554688 3051.261719 C 466.726562 3058.105469 476.402344 3064.945312 476.402344 3080.046875 C 476.402344 3098.21875 460.351562 3109.308594 438.410156 3109.308594 C 408.445312 3109.308594 395.222656 3092.789062 389.328125 3083.117188 L 389.328125 3120.394531 C 390.980469 3118.742188 392.628906 3116.148438 394.992188 3116.148438 C 404.191406 3116.148438 413.632812 3127 440.773438 3127 C 475.9375 3127 500 3105.761719 500 3077.214844 C 500 3053.605469 485.839844 3041.347656 457.992188 3030.953125 L 433.933594 3021.992188 C 416.933594 3015.617188 410.566406 3008.53125 410.566406 2995.078125 C 410.566406 2977.378906 425.667969 2965.351562 444.542969 2965.351562 C 473.574219 2965.351562 485.601562 2985.164062 487.730469 2987.0625 L 487.730469 2953.789062 Z M 487.730469 2953.800781 " fill-opacity="1" fill-rule="nonzero"/><path fill="#ffffff" d="M 512.949219 3109.308594 C 508.464844 3121.105469 504.933594 3121.34375 502.570312 3123.46875 L 535.132812 3123.46875 C 534.1875 3121.339844 529.945312 3122.523438 529.945312 3114.738281 C 529.945312 3112.839844 530.410156 3111.671875 531.351562 3109.078125 L 547.640625 3065.175781 L 615.828125 3065.175781 L 633.054688 3110.480469 C 633.769531 3112.609375 634.710938 3114.492188 634.710938 3116.148438 C 634.710938 3120.871094 631.171875 3121.339844 629.285156 3123.460938 L 667.746094 3123.460938 C 663.027344 3120.152344 661.613281 3119.679688 658.078125 3110.480469 L 596.960938 2951.207031 L 566.515625 2951.207031 C 567.933594 2953.089844 569.816406 2955.21875 569.816406 2958.519531 C 569.816406 2960.410156 569.351562 2962.523438 568.636719 2964.171875 L 512.941406 3109.300781 Z M 553.0625 3049.851562 L 581.621094 2974.574219 L 610.414062 3049.851562 Z M 689.929688 3109.078125 C 689.929688 3118.984375 688.269531 3120.160156 683.554688 3123.46875 L 719.894531 3123.46875 C 715.183594 3120.160156 713.527344 3118.984375 713.527344 3109.078125 L 713.527344 3056.6875 L 739.953125 3028.140625 L 792.34375 3123.46875 L 823.957031 3123.46875 C 819.714844 3119.6875 816.871094 3119.222656 810.273438 3107.890625 L 756.234375 3011.386719 L 796.820312 2967.726562 C 807.917969 2955.691406 814.523438 2952.625 815.933594 2951.207031 L 781.957031 2951.207031 C 782.667969 2952.625 783.367188 2954.035156 783.367188 2955.917969 C 783.367188 2958.277344 780.304688 2961.824219 778.175781 2964.171875 L 713.519531 3034.5 L 713.519531 2965.589844 C 713.519531 2955.683594 715.175781 2954.5 719.886719 2951.199219 L 683.546875 2951.199219 C 688.269531 2954.5 689.921875 2955.683594 689.921875 2965.589844 L 689.921875 3109.070312 Z M 846.84375 3109.078125 C 846.84375 3118.984375 845.1875 3120.160156 840.472656 3123.46875 L 876.820312 3123.46875 C 872.09375 3120.160156 870.445312 3118.984375 870.445312 3109.078125 L 870.445312 3041.351562 L 951.382812 3041.351562 L 951.382812 3109.078125 C 951.382812 3118.984375 949.730469 3120.160156 945.007812 3123.46875 L 981.347656 3123.46875 C 976.625 3120.160156 974.972656 3118.984375 974.972656 3109.078125 L 974.972656 2965.597656 C 974.972656 2955.691406 976.625 2954.507812 981.347656 2951.207031 L 945.007812 2951.207031 C 949.730469 2954.507812 951.382812 2955.691406 951.382812 2965.597656 L 951.382812 3024.824219 L 870.445312 3024.824219 L 870.445312 2965.597656 C 870.445312 2955.691406 872.101562 2954.507812 876.820312 2951.207031 L 840.472656 2951.207031 C 845.195312 2954.507812 846.84375 2955.691406 846.84375 2965.597656 Z M 1006.828125 3109.308594 C 1002.34375 3121.105469 998.8125 3121.34375 996.449219 3123.46875 L 1029.011719 3123.46875 C 1028.074219 3121.339844 1023.824219 3122.523438 1023.824219 3114.738281 C 1023.824219 3112.839844 1024.289062 3111.671875 1025.230469 3109.078125 L 1041.519531 3065.175781 L 1109.710938 3065.175781 L 1126.933594 3110.480469 C 1127.640625 3112.609375 1128.585938 3114.492188 1128.585938 3116.148438 C 1128.585938 3120.871094 1125.042969 3121.339844 1123.15625 3123.460938 L 1161.617188 3123.460938 C 1156.902344 3120.152344 1155.484375 3119.679688 1151.945312 3110.480469 L 1090.832031 2951.207031 L 1060.386719 2951.207031 C 1061.804688 2953.089844 1063.6875 2955.21875 1063.6875 2958.519531 C 1063.6875 2960.410156 1063.222656 2962.523438 1062.511719 2964.171875 L 1006.816406 3109.300781 Z M 1046.941406 3049.851562 L 1075.492188 2974.574219 L 1104.289062 3049.851562 Z M 1183.808594 3109.078125 C 1183.808594 3118.984375 1182.15625 3120.160156 1177.433594 3123.46875 L 1213.773438 3123.46875 C 1209.054688 3120.160156 1207.40625 3118.984375 1207.40625 3109.078125 L 1207.40625 3053.855469 L 1231.710938 3053.855469 C 1278.902344 3053.855469 1302.734375 3036.15625 1302.734375 3002.179688 C 1302.734375 2960.648438 1281.738281 2951.214844 1231.710938 2951.214844 L 1177.441406 2951.214844 C 1182.164062 2954.515625 1183.8125 2955.699219 1183.8125 2965.605469 L 1183.8125 3109.085938 Z M 1207.40625 3037.339844 L 1207.40625 2967.726562 L 1231.710938 2967.726562 C 1267.105469 2967.726562 1279.140625 2979.050781 1279.140625 3001.945312 C 1279.140625 3022.941406 1268.523438 3037.339844 1231.710938 3037.339844 Z M 1207.40625 3037.339844 " fill-opacity="1" fill-rule="nonzero"/><path fill="#ffffff" d="M 1303.875 3109.308594 C 1299.390625 3121.105469 1295.859375 3121.34375 1293.496094 3123.46875 L 1326.054688 3123.46875 C 1325.109375 3121.339844 1320.867188 3122.523438 1320.867188 3114.738281 C 1320.867188 3112.839844 1321.332031 3111.671875 1322.277344 3109.078125 L 1338.566406 3065.175781 L 1406.753906 3065.175781 L 1423.980469 3110.480469 C 1424.691406 3112.609375 1425.636719 3114.492188 1425.636719 3116.148438 C 1425.636719 3120.871094 1422.097656 3121.339844 1420.207031 3123.460938 L 1458.667969 3123.460938 C 1453.960938 3120.152344 1452.535156 3119.679688 1449.003906 3110.480469 L 1387.886719 2951.207031 L 1357.441406 2951.207031 C 1358.855469 2953.089844 1360.738281 2955.21875 1360.738281 2958.519531 C 1360.738281 2960.410156 1360.273438 2962.523438 1359.5625 2964.171875 L 1303.867188 3109.300781 Z M 1343.984375 3049.851562 L 1372.542969 2974.574219 L 1401.339844 3049.851562 Z M 1343.984375 3049.851562 " fill-opacity="1" fill-rule="nonzero"/><path fill="#ffffff" d="M 1440.25 2951.207031 L 1440.25 2975.039062 C 1443.789062 2971.5 1444.03125 2967.726562 1456.539062 2967.726562 L 1490.988281 2967.726562 L 1490.988281 3109.078125 C 1490.988281 3118.984375 1489.339844 3120.160156 1484.617188 3123.46875 L 1520.964844 3123.46875 C 1516.238281 3120.160156 1514.589844 3118.984375 1514.589844 3109.078125 L 1514.589844 2967.726562 L 1549.511719 2967.726562 C 1561.546875 2967.726562 1561.789062 2971.5 1565.328125 2975.039062 L 1565.328125 2951.207031 Z M 1595.519531 3109.078125 C 1595.519531 3118.984375 1593.867188 3120.160156 1589.144531 3123.46875 L 1618.40625 3123.46875 C 1613.6875 3120.160156 1612.039062 3118.984375 1612.039062 3109.078125 L 1612.039062 2981.886719 L 1612.503906 2981.886719 L 1709.023438 3123.46875 L 1729.078125 3123.46875 L 1729.078125 2965.597656 C 1729.078125 2955.691406 1730.726562 2954.507812 1735.441406 2951.207031 L 1706.183594 2951.207031 C 1710.90625 2954.507812 1712.554688 2955.691406 1712.554688 2965.597656 L 1712.554688 3087.832031 L 1712.082031 3087.832031 L 1619.34375 2951.207031 L 1589.144531 2951.207031 C 1593.871094 2954.507812 1595.519531 2955.691406 1595.519531 2965.597656 Z M 1762.589844 3109.308594 C 1758.105469 3121.105469 1754.574219 3121.34375 1752.210938 3123.46875 L 1784.773438 3123.46875 C 1783.828125 3121.339844 1779.582031 3122.523438 1779.582031 3114.738281 C 1779.582031 3112.839844 1780.046875 3111.671875 1780.992188 3109.078125 L 1797.28125 3065.175781 L 1865.46875 3065.175781 L 1882.695312 3110.480469 C 1883.398438 3112.609375 1884.34375 3114.492188 1884.34375 3116.148438 C 1884.34375 3120.871094 1880.804688 3121.339844 1878.914062 3123.460938 L 1917.378906 3123.460938 C 1912.667969 3120.152344 1911.242188 3119.679688 1907.710938 3110.480469 L 1846.59375 2951.207031 L 1816.148438 2951.207031 C 1817.566406 2953.089844 1819.453125 2955.21875 1819.453125 2958.519531 C 1819.453125 2960.410156 1818.988281 2962.523438 1818.277344 2964.171875 L 1762.582031 3109.300781 Z M 1802.710938 3049.851562 L 1831.257812 2974.574219 L 1860.054688 3049.851562 Z M 1939.09375 3109.078125 C 1939.09375 3118.984375 1937.445312 3120.160156 1932.71875 3123.46875 L 1961.980469 3123.46875 C 1957.273438 3120.160156 1955.613281 3118.984375 1955.613281 3109.078125 L 1955.613281 2975.746094 L 1956.078125 2975.746094 L 2020.738281 3123.46875 L 2032.058594 3123.46875 L 2095.53125 2975.746094 L 2096.003906 2975.746094 L 2096.003906 3109.078125 C 2096.003906 3118.984375 2094.355469 3120.160156 2089.628906 3123.46875 L 2125.976562 3123.46875 C 2121.253906 3120.160156 2119.605469 3118.984375 2119.605469 3109.078125 L 2119.605469 2965.597656 C 2119.605469 2955.691406 2121.253906 2954.507812 2125.976562 2951.207031 L 2090.824219 2951.207031 L 2030.402344 3089.015625 L 1969.765625 2951.207031 L 1932.710938 2951.207031 C 1937.4375 2954.507812 1939.085938 2955.691406 1939.085938 2965.597656 L 1939.085938 3109.078125 Z M 1939.09375 3109.078125 " fill-opacity="1" fill-rule="nonzero"/><path fill="#ea5e20" d="M 898.835938 356.617188 C 939.398438 389.050781 987.324219 427.363281 1061.59375 445.089844 C 987.324219 462.839844 939.40625 501.128906 898.835938 533.578125 C 850.386719 572.339844 815.371094 600.359375 737.464844 600.359375 C 659.5625 600.359375 624.550781 572.332031 576.101562 533.578125 C 535.539062 501.128906 487.613281 462.839844 413.339844 445.089844 C 487.597656 427.355469 535.53125 389.050781 576.09375 356.617188 C 624.542969 317.839844 659.558594 289.84375 737.464844 289.84375 C 815.371094 289.84375 850.378906 317.839844 898.835938 356.617188 Z M 898.835938 356.617188 " fill-opacity="1" fill-rule="nonzero"/><path fill="#ea5e20" d="M 576.101562 1113.269531 C 535.539062 1080.8125 487.613281 1042.507812 413.339844 1024.78125 C 487.597656 1007.046875 535.53125 968.746094 576.09375 936.292969 C 624.542969 897.53125 659.558594 869.519531 737.464844 869.519531 C 815.371094 869.519531 850.378906 897.535156 898.835938 936.292969 C 939.398438 968.746094 987.324219 1007.046875 1061.59375 1024.78125 C 987.324219 1042.515625 939.40625 1080.8125 898.835938 1113.269531 C 850.386719 1152.023438 815.371094 1180.039062 737.464844 1180.039062 C 659.5625 1180.039062 624.550781 1152.023438 576.101562 1113.269531 Z M 576.101562 1113.269531 " fill-opacity="1" fill-rule="nonzero"/><path fill="#ea5e20" d="M 1150.496094 579.675781 C 1228.402344 579.675781 1263.417969 607.683594 1311.867188 646.445312 C 1352.4375 678.902344 1400.363281 717.199219 1474.625 734.941406 C 1400.355469 752.671875 1352.421875 790.976562 1311.867188 823.417969 C 1263.410156 862.1875 1228.402344 890.1875 1150.496094 890.1875 C 1072.589844 890.1875 1037.574219 862.1875 989.125 823.417969 C 948.5625 790.976562 900.636719 752.671875 826.367188 734.941406 C 900.636719 717.191406 948.5625 678.902344 989.125 646.445312 C 1037.574219 607.683594 1072.589844 579.675781 1150.496094 579.675781 Z M 1150.496094 579.675781 " fill-opacity="1" fill-rule="nonzero"/><g clip-path="url(#7c21789147)"><path fill="#e31e24" d="M 324.453125 579.675781 C 402.355469 579.675781 437.359375 607.683594 485.8125 646.445312 C 526.382812 678.902344 574.300781 717.199219 648.570312 734.941406 C 574.300781 752.671875 526.367188 790.976562 485.8125 823.417969 C 437.351562 862.1875 402.347656 890.1875 324.441406 890.1875 C 246.53125 890.1875 211.527344 862.1875 163.074219 823.417969 C 122.519531 790.976562 74.585938 752.671875 0.324219 734.941406 C 74.59375 717.191406 122.527344 678.902344 163.082031 646.445312 C 211.542969 607.683594 246.546875 579.675781 324.453125 579.675781 Z M 324.453125 579.675781 " fill-opacity="1" fill-rule="nonzero"/></g><path fill="#f39314" d="M 1150.496094 1469.863281 C 1072.589844 1469.863281 1037.574219 1441.871094 989.125 1403.097656 C 948.5625 1370.652344 900.636719 1332.355469 826.367188 1314.609375 C 900.636719 1296.875 948.5625 1258.5625 989.125 1226.128906 C 1037.574219 1187.359375 1072.589844 1159.359375 1150.496094 1159.359375 C 1228.402344 1159.359375 1263.417969 1187.359375 1311.867188 1226.128906 C 1352.4375 1258.5625 1400.363281 1296.875 1474.625 1314.609375 C 1400.355469 1332.355469 1352.421875 1370.652344 1311.867188 1403.097656 C 1263.410156 1441.871094 1228.402344 1469.863281 1150.496094 1469.863281 Z M 1150.496094 1469.863281 " fill-opacity="1" fill-rule="nonzero"/><path fill="#f39314" d="M 1563.527344 289.84375 C 1641.429688 289.84375 1676.433594 317.839844 1724.890625 356.601562 C 1765.453125 389.058594 1813.378906 427.363281 1887.652344 445.089844 C 1813.378906 462.839844 1765.453125 501.128906 1724.890625 533.578125 C 1676.441406 572.355469 1641.429688 600.359375 1563.519531 600.359375 C 1485.613281 600.359375 1450.601562 572.332031 1402.148438 533.578125 C 1361.585938 501.128906 1313.660156 462.839844 1239.390625 445.089844 C 1313.660156 427.363281 1361.585938 389.050781 1402.148438 356.617188 C 1450.601562 317.839844 1485.613281 289.84375 1563.527344 289.84375 Z M 1563.527344 289.84375 " fill-opacity="1" fill-rule="nonzero"/><path fill="#f39314" d="M 1563.519531 1180.039062 C 1485.613281 1180.039062 1450.601562 1152.023438 1402.148438 1113.269531 C 1361.585938 1080.8125 1313.660156 1042.507812 1239.390625 1024.78125 C 1313.660156 1007.046875 1361.585938 968.746094 1402.148438 936.292969 C 1450.601562 897.53125 1485.613281 869.519531 1563.527344 869.519531 C 1641.429688 869.519531 1676.433594 897.535156 1724.890625 936.292969 C 1765.453125 968.746094 1813.378906 1007.046875 1887.652344 1024.78125 C 1813.378906 1042.515625 1765.453125 1080.8125 1724.890625 1113.269531 C 1676.441406 1152.023438 1641.429688 1180.039062 1563.519531 1180.039062 Z M 1563.519531 1180.039062 " fill-opacity="1" fill-rule="nonzero"/><g clip-path="url(#a2cab56497)"><path fill="#f39314" d="M 1976.542969 890.195312 C 1898.636719 890.195312 1863.625 862.195312 1815.171875 823.425781 C 1774.609375 790.984375 1726.683594 752.679688 1652.414062 734.949219 C 1726.683594 717.199219 1774.617188 678.910156 1815.171875 646.453125 C 1863.625 607.691406 1898.636719 579.683594 1976.550781 579.683594 C 2054.453125 579.683594 2089.464844 607.691406 2137.917969 646.453125 C 2178.472656 678.910156 2226.40625 717.207031 2300.675781 734.949219 C 2226.421875 752.679688 2178.472656 790.984375 2137.917969 823.425781 C 2089.464844 862.195312 2054.453125 890.195312 1976.542969 890.195312 Z M 1976.542969 890.195312 " fill-opacity="1" fill-rule="nonzero"/></g><path fill="#f39314" d="M 989.125 66.773438 C 1037.574219 28.007812 1072.589844 0 1150.496094 0 C 1228.402344 0 1263.417969 28.015625 1311.867188 66.773438 C 1352.4375 99.226562 1400.363281 137.523438 1474.625 155.261719 C 1400.355469 172.996094 1352.421875 211.292969 1311.867188 243.75 C 1263.410156 282.503906 1228.402344 310.519531 1150.496094 310.519531 C 1072.589844 310.519531 1037.574219 282.503906 989.125 243.75 C 948.5625 211.292969 900.636719 172.988281 826.367188 155.261719 C 900.636719 137.523438 948.5625 99.21875 989.125 66.773438 Z M 989.125 66.773438 " fill-opacity="1" fill-rule="nonzero"/></svg>